<?xml version="1.0" encoding="utf-8"?>
<!-- Generator: Adobe Illustrator 28.0.0, SVG Export Plug-In . SVG Version: 6.00 Build 0)  -->
<svg version="1.1" id="Layer_1" xmlns="http://www.w3.org/2000/svg" xmlns:xlink="http://www.w3.org/1999/xlink" x="0px" y="0px"
	 viewBox="0 0 1000 1000" style="enable-background:new 0 0 1000 1000;" xml:space="preserve">
<style type="text/css">
	.st0{fill:#EE819B;}
	.st1{fill:#F8CED9;}
	.st2{fill:none;stroke:#F198AF;stroke-linecap:round;stroke-linejoin:round;stroke-miterlimit:10;}
	.st3{fill:#F198AF;}
	.st4{fill:#FFFFFF;}
	.st5{fill:#00A49F;}
	.st6{fill:#414446;}
	.st7{font-family:'AJannatLT-Bold';}
	.st8{font-size:92.4318px;}
	.st9{fill:#4A494A;}
	.st10{fill:url(#SVGID_1_);}
	.st11{fill:url(#SVGID_00000151517152682836596190000002447420987227206830_);}
</style>
<path class="st0" d="M664.8,548c0,1.8-1.5,3.3-3.3,3.3c-1.8,0-3.3-1.5-3.3-3.3c0-1.8,1.5-3.3,3.3-3.3
	C663.3,544.7,664.8,546.2,664.8,548z"/>
<g>
	<path class="st1" d="M412.9,541.4c-21.9-0.2-23.2-34.6,51.3-60.7c13.2-4.6,24.2-8.4,35.1-11.6C452.2,488,393.2,529.2,412.9,541.4z"
		/>
	<g>
		<g>
			<path class="st1" d="M419.9,263.3c-8,7.3-16.3,12.4-25.4,12.9c-4.3,0.2-8.3,0.6-12.1,1.3C390.2,267.4,403,262.7,419.9,263.3z
				 M546.8,213.6c-9.4-3-18.3-2.5-26.9,0.2c41.7,29.9,36.4,140.4-37.9,259.2C587.9,355,605,232.3,546.8,213.6z M401.1,417.6
				c-53.9-27.6-85.5-21.5-83.3,3.2c0.2,2.6,1.2,5.1,2.8,7.4c20.1-10.7,69.7-4.2,141.5,33.6C438.5,448.2,418,433.3,401.1,417.6z"/>
			<path class="st2" d="M482,472.9c-6.7-3.5-13.2-7.1-19.5-10.7C468.8,465.5,475.3,469.1,482,472.9z"/>
			<path class="st3" d="M482,472.9c-81.9,6.5-163.9,2.7-170.7-23c-2.6-9.6,0.7-17.1,9.3-21.6C342.5,416.7,399.5,425.4,482,472.9z"/>
			<path class="st3" d="M482,472.9c-6.7-3.8-13.2-7.4-19.5-10.7c-0.2-0.1-0.3-0.2-0.5-0.2c-23.5-13.8-43.9-28.6-60.9-44.3
				c-27-24.8-45.1-51.4-52.3-77.9c-9.9-36.6,3.3-57,33.5-62.3c3.8-0.7,7.9-1.1,12.1-1.3c9.1-0.4,17.4-5.5,25.4-12.9
				c23.7-21.5,45.5-62,81.2-57c7,1,13.3,3.5,18.8,7.4C561.5,243.6,556.3,354.1,482,472.9z"/>
			<path class="st2" d="M464.2,480.8c13.2-4.6,24.2-8.4,35.1-11.6c-16.6,19.3-38.1,46.5-67.5,65.8c-7,4.6-13.5,6.6-18.9,6.5
				C390.9,541.2,389.7,506.8,464.2,480.8z"/>
			<path class="st2" d="M522.9,463c-8.3,1.9-16,3.9-23.7,6.2c10.4-12,18.9-20.9,26.4-22.8C540,442.7,541.7,458.8,522.9,463z"/>
			<g>
				<path class="st3" d="M533.6,446.5c24.4-8.1,50.6-25.3,57.3-51.6c0.3-1.3,0.5-2.8,0.7-4.1c0.1-1,0.2-3.1,0.3-4.1
					c0-0.1,0.1-0.3,0.3-0.3c0.1,0,0.2,0.1,0.2,0.3c-0.1,1.7-0.1,4-0.5,5.6c-3.5,20.5-20.2,36.3-37.6,46.1c-6.5,3.6-13.4,6.5-20.4,9
					c-0.3,0.1-0.5,0-0.6-0.3C533.2,446.9,533.3,446.6,533.6,446.5L533.6,446.5z"/>
			</g>
			<g>
				<path class="st3" d="M536.7,451c20.7-2.6,46.7-10.9,57.7-30c0.1-0.1,0.2-0.2,0.3-0.1c0.1,0.1,0.2,0.2,0.1,0.3
					c-8.5,15.1-25.4,22.8-41.4,27.4c-5.4,1.5-11,2.6-16.6,3.3C536.2,452.1,536,451.1,536.7,451L536.7,451z"/>
			</g>
		</g>
		<path class="st4" d="M498,239.9c-36.4-3.6-29.6,90.9-0.2,83.3C512.3,319.4,525.8,242.6,498,239.9z"/>
		<path class="st4" d="M351.5,439.4c-15.7-2.3-23.1,13.6,2.3,14.9S373.2,442.6,351.5,439.4z"/>
	</g>
	<path class="st5" d="M590.8,504.7c32.6,14,45.2,11,71-24.3c-31.8,0-59-12.9-74.3,20.1c0,0,10.6-8.5,29.1-7.1
		C616.5,493.4,606.6,493.1,590.8,504.7z"/>
	<path class="st5" d="M584.9,508.3c-4.8,35.1-1.9,47.6,41.2,69.9c-8.5-30.6,6.4-70.1-35.3-73.4c0,0,8.7,7,11.4,27.1
		C602.2,531.8,598.9,518.5,584.9,508.3z"/>
	<path class="st5" d="M579.8,508.3c-17.1,5.4-31.4,10.2-33.7,44.9c17.7-14.3,48.5-16.5,38.8-44.9c0,0-1.7,9.4-13.6,16.8
		C571.3,525.1,577.6,518.4,579.8,508.3z"/>
	<path class="st5" d="M587.4,500.6c19.6-17.3,23.3-27.3,10-60.4c-10,21.2-36.4,38.2-14.7,60.2c0,0-1.8-12.3,5.7-22.8
		C588.4,477.5,584.6,486.4,587.4,500.6z"/>
	<path class="st5" d="M582.6,500.3c-8.3-16.6-18.8-23-51.3-15.6c18.4,10.3,24.8,30.1,49,19.8c0,0-10.3-0.5-17.3-9.3
		C563,495.2,571,501.2,582.6,500.3z"/>
	<path class="st5" d="M471.3,518.5c28.9-20.6,74,3,109-14c0,0-6.3,1.3-11.7-1C525.8,509.7,495.2,496.9,471.3,518.5z"/>
	<path class="st0" d="M653.3,408.5l1.9,8c1.4,6.1,6.2,10.9,12.4,12.4l8,1.9l-8,1.9c-6.1,1.4-10.9,6.2-12.4,12.4l-1.9,8l-1.9-8
		c-1.4-6.1-6.2-10.9-12.4-12.4l-8-1.9l8-1.9c6.1-1.4,10.9-6.2,12.4-12.4L653.3,408.5z"/>
	<path class="st0" d="M502.7,531.4l0.8,3.6c0.7,2.8,2.8,5,5.6,5.6l3.6,0.8l-3.6,0.8c-2.8,0.7-5,2.8-5.6,5.6l-0.8,3.6l-0.8-3.6
		c-0.7-2.8-2.8-5-5.6-5.6l-3.6-0.8l3.6-0.8c2.8-0.7,5-2.8,5.6-5.6L502.7,531.4z"/>
	<path class="st0" d="M594.6,336.3l1,4.3c0.8,3.3,3.3,5.9,6.6,6.6l4.3,1l-4.3,1c-3.3,0.8-5.9,3.3-6.6,6.6l-1,4.3l-1-4.3
		c-0.8-3.3-3.3-5.9-6.6-6.6l-4.3-1l4.3-1c3.3-0.8,5.9-3.3,6.6-6.6L594.6,336.3z"/>
	<path class="st0" d="M666.9,548.3c0,5.9-4.8,10.7-10.7,10.7c-5.9,0-10.7-4.8-10.7-10.7c0-5.9,4.8-10.7,10.7-10.7
		C662.1,537.6,666.9,542.4,666.9,548.3z"/>
	<circle class="st0" cx="620.2" cy="395.1" r="4.3"/>
</g>
<text transform="matrix(1 0 0 1 209.2031 677.5023)" class="st6 st7 st8">Beauty Touch</text>
<g>
	<path class="st9" d="M378.4,766.9c0,5.1-1.8,9.2-5.4,12.3c-3.1,2.7-7.2,4.1-12,4.1c-5.8,0-10.2-1.9-13.4-5.8
		c-2.4-3-3.6-6.6-3.6-10.8c0-3.7,0.9-6.8,2.6-9.4l5.6-1.2c-2,3.1-3,6.4-3,10c0,3.6,1.1,6.5,3.4,8.8c2.1,2.1,4.9,3.2,8.3,3.2
		c3.9,0,6.9-1.2,9-3.5c1.8-2,2.7-4.5,2.7-7.6v-34.6l5.6-3V766.9z"/>
	<path class="st9" d="M401.3,771c-3.7,0-6.6-1.2-8.7-3.6c-1.7-2.1-2.6-4.7-2.6-7.9v-27.2l5.6-3v30c0,4.3,2.1,6.5,6.3,6.5h4.3v5.2
		H401.3z"/>
	<path class="st9" d="M443.9,765.8h4.3v5.2h-4.9c-3.6,0-6.4-1.1-8.5-3.4c-2.2,3.1-5.4,4.7-9.6,4.7c-4.2,0-7.4-1.6-9.6-4.7
		c-2,2.2-4.8,3.4-8.5,3.4h-4.9v-5.2h4.3c4.2,0,6.3-2.2,6.3-6.5v-2.1c0-5,1.2-8.8,3.7-11.5c2.2-2.4,5-3.6,8.7-3.6
		c4.1,0,7.3,1.5,9.6,4.6c1.9,2.6,2.8,6.1,2.8,10.5v2.1C437.6,763.6,439.7,765.8,443.9,765.8z M425.2,767.1c2.1,0,3.8-0.9,5-2.6
		c1.2-1.8,1.8-4.2,1.8-7.3c0-6.5-2.3-9.8-6.9-9.8c-4.5,0-6.8,3.3-6.8,9.8C418.4,763.7,420.7,767.1,425.2,767.1z"/>
	<path class="st9" d="M444.4,771v-5.2h8.9c8.7,0,15.7-2.9,20.7-8.7c-3.6-6.6-7.9-9.9-13.1-9.9c-3.5,0-7.1,1.9-10.8,5.6v-5.2
		c3.6-3.7,7.5-5.5,11.5-5.5c3.3,0,6.5,1.2,9.6,3.6c3.1,2.4,5.8,5.8,8.2,10.2v2.8c-6.3,8.1-15.1,12.2-26.3,12.2H444.4z M463.3,783.9
		c-2.1,0-3.2-1.1-3.2-3.2c0-2.1,1.1-3.2,3.2-3.2c2.1,0,3.1,1.1,3.1,3.2C466.4,782.8,465.4,783.9,463.3,783.9z"/>
	<path class="st9" d="M529.4,765.8h4.3v5.2h-4.9c-4.4,0-7.6-1.6-9.6-4.9c-2.1,2-4.6,3-7.7,3c-3.8,0-6.8-1.4-9-4.3
		c-1.9-2.4-2.8-5.4-2.8-8.9c0-4.2,1.3-7.5,3.8-10.1c2.2-2.2,4.8-3.3,7.9-3.3c2.4,0,4.4,0.6,6.1,1.8v-2.8l5.6-3v20.7
		C523.1,763.6,525.2,765.8,529.4,765.8z M517.5,750.4c-1.6-1.8-3.6-2.6-5.9-2.6c-1.9,0-3.4,0.8-4.7,2.3s-1.8,3.5-1.8,6
		c0,2.5,0.6,4.5,1.8,6s2.8,2.3,4.7,2.3c2.4,0,4.4-1,5.9-3c-0.1-0.8-0.1-1.4-0.1-1.8V750.4z M509.2,734.5c-2.1,0-3.2-1.1-3.2-3.2
		c0-2.1,1.1-3.2,3.2-3.2c2.1,0,3.1,1.1,3.1,3.2C512.3,733.4,511.2,734.5,509.2,734.5z M517.4,734.5c-2.1,0-3.2-1.1-3.2-3.2
		c0-2.1,1.1-3.2,3.2-3.2c2.1,0,3.1,1.1,3.1,3.2C520.5,733.4,519.5,734.5,517.4,734.5z"/>
	<path class="st9" d="M529.8,771v-5.2h5.8c4.2,0,6.3-2.2,6.3-6.5v-9l5.6-3v12c0,4.3,2.1,6.5,6.3,6.5h3c4.2,0,6.3-2.2,6.3-6.5v-11.2
		l5.6-2.9v14.2c0,4.3,2.1,6.5,6.3,6.5h3c4.2,0,6.3-2.2,6.3-6.5v-13.4l5.6-3v15.8c0,4.7,2.2,7,6.7,7h5.4v5.2h-5.8
		c-3.9,0-6.8-1.3-8.9-3.9c-1.8,2.6-4.6,3.9-8.5,3.9h-4.5c-3.8,0-6.6-1.3-8.5-3.8c-1.9,2.5-4.6,3.8-8.3,3.8h-4.5
		c-3.7,0-6.5-1.3-8.5-3.8c-1.9,2.5-4.7,3.8-8.5,3.8H529.8z"/>
	<path class="st9" d="M639.7,765.8h4.3v5.2h-4.9c-3.6,0-6.4-1.1-8.5-3.4c-2.2,3.1-5.4,4.7-9.6,4.7c-4.2,0-7.4-1.6-9.6-4.7
		c-2,2.2-4.8,3.4-8.5,3.4H598v-5.2h4.3c4.2,0,6.3-2.2,6.3-6.5v-2.1c0-5,1.2-8.8,3.7-11.5c2.2-2.4,5-3.6,8.7-3.6
		c4.1,0,7.3,1.5,9.6,4.6c1.9,2.6,2.8,6.1,2.8,10.5v2.1C633.4,763.6,635.5,765.8,639.7,765.8z M621,767.1c2.1,0,3.8-0.9,5-2.6
		c1.2-1.8,1.8-4.2,1.8-7.3c0-6.5-2.3-9.8-6.9-9.8c-4.5,0-6.8,3.3-6.8,9.8C614.2,763.7,616.5,767.1,621,767.1z"/>
	<path class="st9" d="M640.1,771v-5.2h3.4c4.5,0,6.7-2.3,6.7-7v-26.4l5.6-3v29.5c0,3.8-1.1,6.9-3.4,9.1c-2.2,2.1-5,3.1-8.5,3.1
		H640.1z"/>
</g>
<g>
	<linearGradient id="SVGID_1_" gradientUnits="userSpaceOnUse" x1="220.5898" y1="762.2425" x2="335.4877" y2="762.2425">
		<stop  offset="0" style="stop-color:#F199AF;stop-opacity:0"/>
		<stop  offset="1" style="stop-color:#F199AF"/>
	</linearGradient>
	<path class="st10" d="M222,763.7c3.7,0,7.4,0,11.1,0c8.9,0,17.9,0,26.8,0c10.8,0,21.5,0,32.3,0c9.3,0,18.6,0,27.9,0
		c4.5,0,9.1,0.2,13.6,0c0.1,0,0.1,0,0.2,0c1.9,0,1.9-3,0-3c-3.7,0-7.4,0-11.1,0c-8.9,0-17.9,0-26.8,0c-10.8,0-21.5,0-32.3,0
		c-9.3,0-18.6,0-27.9,0c-4.5,0-9.1-0.2-13.6,0c-0.1,0-0.1,0-0.2,0C220.1,760.7,220.1,763.7,222,763.7L222,763.7z"/>
</g>
<g>
	
		<linearGradient id="SVGID_00000089543678911190756960000008083695521784455333_" gradientUnits="userSpaceOnUse" x1="93.4102" y1="800.2575" x2="208.3081" y2="800.2575" gradientTransform="matrix(-1 0 0 -1 874 1563)">
		<stop  offset="0" style="stop-color:#F199AF;stop-opacity:0"/>
		<stop  offset="1" style="stop-color:#F199AF"/>
	</linearGradient>
	<path style="fill:url(#SVGID_00000089543678911190756960000008083695521784455333_);" d="M779.1,761.2c-3.7,0-7.4,0-11.1,0
		c-8.9,0-17.9,0-26.8,0c-10.8,0-21.5,0-32.3,0c-9.3,0-18.6,0-27.9,0c-4.5,0-9.1-0.2-13.6,0c-0.1,0-0.1,0-0.2,0c-1.9,0-1.9,3,0,3
		c3.7,0,7.4,0,11.1,0c8.9,0,17.9,0,26.8,0c10.8,0,21.5,0,32.3,0c9.3,0,18.6,0,27.9,0c4.5,0,9.1,0.2,13.6,0c0.1,0,0.1,0,0.2,0
		C781.1,764.2,781.1,761.2,779.1,761.2L779.1,761.2z"/>
</g>
</svg>
